<svg xmlns="http://www.w3.org/2000/svg" height="512" viewBox="0 0 512 512" width="512">
    <g fill="red">
        <path fill="" d="M0.0,0.0 h3.0 v5.0 h-3.0 z" />
        <g fill="yellow">
            <path d="M4.0,4.0 m-9.0,0.0 A9.0,9.0,0.0,1,1,18.0,0.0 A9.0,9.0,0.0,1,1,-18.0,0.0" />
            <g>
                <path d="M4.0,4.0 m-9.0,0.0 A9.0,9.0,0.0,1,1,18.0,0.0 A9.0,9.0,0.0,1,1,-18.0,0.0" />
            </g>
        </g>
    </g>
    <path d="M0.0,0.0 h512.0 v512.0 h-512.0 z" fill="#ffffff" opacity="" />
    <path d="M57.7158,76.51213 q165.62085,219.14528,106.67051,42.342876 Q107.63289,203.31972,149.52316,197.85358 S173.6087,197.57343,179.70593178.95355 s127.867165,74.21139,186.72166170.6744 c129.6353,167.18718,79.78548,199.44211,162.24309,46.55346 z z z C181.40878,101.59225,3.7118688,25.236832,201.48752,138.15631 z C111.25496,240.93155,138.98938,233.75223,151.48624,254.22845 Q145.30164,240.17027,42.37887,97.58916 C164.85913,132.57724,33.251255,245.83452,57.99197,0.69036216 C46.26586,235.114,66.03228,181.58492,237.37462,222.2973 z s93.587715,30.383732,185.94128165.30495 C148.65404,47.811314,130.6234,48.851593,137.91005,100.43325 q92.476036,72.87901,34.000896,8.565682 s9.899746,190.11261,208.16447185.81334 z C108.30559,75.256485,69.97669,106.69974,223.85278,169.66711 c121.11879,212.5907,191.55981,225.74901,43.18684,145.10445 s116.001495,215.0765,157.8567192.02328 z z z z c244.49013,85.93547,160.14162,234.61464,168.57516,27.971075 z C234.751,84.76842,201.68626,162.87544,98.82631,109.148766 z C202.6153,169.97238,160.79327,191.51306,12.394586,193.72606 C2.2337027,70.85995,197.2529,240.96149,217.45667,5.918547 z z z z c247.88087,115.93816,96.159065,180.88036,209.61848,108.031364 c39.694084,75.69594,121.509026,85.55527,135.33273,97.74597 c31.814112,236.07968,230.16838,34.80402,197.77383,145.5039 q210.14693,228.85828,148.6412,105.4698 z q143.53827,248.10133,83.78447,231.59494 z z S201.5536,83.49213,134.7055731.620003 q87.92848,9.207194,170.61241,27.012918 q10.109783,87.55749,232.9055,156.32622 q127.657585,172.15096,0.014484823,216.14352 z Q25.463558,249.3229,55.555893,173.33394" />
</svg>